<?xml version="1.0" standalone="no"?>
<!DOCTYPE svg PUBLIC "-//W3C//DTD SVG 20010904//EN"
 "http://www.w3.org/TR/2001/REC-SVG-20010904/DTD/svg10.dtd">
<svg version="1.0" xmlns="http://www.w3.org/2000/svg"
 width="611.000000pt" height="611.000000pt" viewBox="0 0 611.000000 611.000000"
 preserveAspectRatio="xMidYMid meet">

<g transform="translate(0.000000,611.000000) scale(0.100000,-0.100000)"
fill="#000000" stroke="none">
<path d="M0 3055 l0 -3055 3055 0 3055 0 0 3055 0 3055 -3055 0 -3055 0 0
-3055z m3888 1150 c197 -38 389 -138 538 -281 77 -74 147 -168 142 -191 -2
-12 -19 4 -56 54 -205 277 -576 442 -912 404 -200 -22 -386 -95 -527 -205 -69
-54 -93 -66 -93 -47 0 14 87 81 172 132 99 59 216 106 328 130 108 22 299 24
408 4z m-1060 -195 c2 -74 -11 -230 -43 -525 -86 -784 -115 -1100 -114 -1223
l0 -77 44 90 c24 50 91 187 148 305 58 118 121 240 142 270 21 30 44 77 51
104 15 56 18 60 39 53 11 -5 15 -22 15 -71 0 -35 3 -71 6 -80 11 -28 50 -18
83 19 26 30 31 44 31 85 0 42 3 50 19 50 20 0 31 -18 31 -52 0 -18 6 -15 38
20 40 43 85 61 111 45 12 -8 17 -32 21 -99 6 -103 21 -118 61 -62 21 29 24 46
27 147 4 127 2 131 -60 131 -58 0 -45 19 15 22 l52 3 5 57 c9 100 50 106 50 8
0 -56 2 -60 26 -66 14 -4 58 -4 98 -1 78 6 129 0 120 -14 -3 -5 -53 -9 -112
-9 -59 0 -112 -4 -119 -8 -17 -11 -29 -267 -14 -304 19 -51 75 -33 163 50 67
63 52 25 -16 -42 -47 -46 -77 -67 -101 -72 -45 -8 -79 13 -96 59 l-12 34 -30
-33 c-37 -43 -79 -46 -103 -9 -14 21 -16 40 -11 100 6 62 4 75 -8 75 -17 0
-59 -69 -86 -141 -10 -29 -24 -56 -30 -60 -24 -14 -39 3 -39 43 l0 40 -31 -31
c-17 -17 -42 -34 -56 -37 -31 -8 -73 11 -80 36 -3 11 -9 20 -12 20 -14 0 -99
-174 -191 -390 -124 -288 -155 -349 -185 -360 -32 -12 -52 -4 -59 23 -21 80 8
460 99 1277 44 400 58 552 53 575 -5 25 -99 -258 -223 -669 -95 -316 -144
-453 -172 -481 -21 -21 -60 -19 -73 5 -6 11 -22 124 -35 252 -26 241 -62 477
-75 491 -22 24 -69 -191 -184 -841 -24 -141 -43 -192 -70 -192 -40 0 -41 11
-39 559 3 559 12 822 28 828 6 1 17 -2 25 -7 12 -8 15 -32 12 -137 -16 -808
-18 -1031 -12 -1048 9 -25 10 -19 45 200 60 379 131 654 179 694 62 52 96 -60
141 -463 14 -126 28 -240 31 -253 20 -76 56 18 203 532 114 401 197 634 234
657 7 5 19 7 27 5 12 -2 16 -23 18 -107z m750 -70 c2 -5 10 -6 17 -4 18 7 108
-41 153 -83 20 -18 40 -33 44 -33 4 0 8 -7 8 -15 0 -9 7 -18 16 -22 9 -3 13
-12 9 -21 -3 -8 0 -19 7 -24 10 -6 10 -8 1 -8 -16 0 -73 -59 -73 -75 0 -15
-28 -29 -49 -26 -13 2 -13 0 -2 -13 11 -13 11 -19 0 -33 -8 -10 -18 -21 -24
-25 -6 -5 -5 -8 3 -8 9 0 10 -5 2 -19 -5 -11 -10 -29 -10 -40 0 -16 -6 -21
-29 -21 -36 0 -121 63 -121 90 0 11 -4 20 -10 20 -13 0 -36 55 -50 120 -6 30
-14 62 -17 70 -10 27 -3 120 12 156 15 36 15 36 62 29 27 -4 49 -11 51 -15z
m485 -206 c42 -6 45 -8 49 -41 2 -18 2 -36 -1 -39 -3 -2 -5 -12 -6 -22 -7 -73
-44 -131 -118 -187 -37 -27 -40 -28 -135 -22 -53 3 -115 13 -137 21 -22 8 -33
15 -24 16 11 0 14 8 11 29 -4 30 40 131 58 131 6 0 16 11 22 25 6 14 15 25 21
25 5 0 17 10 28 23 11 14 18 17 19 8 0 -11 3 -11 17 0 39 33 108 45 196 33z
m618 -53 c17 -18 29 -40 29 -56 0 -34 -50 -85 -83 -85 -32 0 -73 33 -81 65 -8
32 17 83 47 95 38 15 58 11 88 -19z m20 -213 c29 -109 39 -182 39 -293 0 -285
-102 -534 -300 -736 -225 -228 -478 -329 -800 -317 -118 4 -166 15 -148 33 3
3 51 0 108 -6 217 -24 463 39 657 168 73 48 192 160 249 235 150 195 225 457
203 709 -7 85 -26 185 -45 234 -4 9 0 15 10 15 10 0 19 -15 27 -42z m-1576
-348 c8 -13 -13 -40 -31 -40 -17 0 -18 22 -2 38 15 15 25 15 33 2z m123 -507
c-10 -2 -26 -2 -35 0 -10 3 -2 5 17 5 19 0 27 -2 18 -5z m81 -91 l-2 -37 -6
42 c-4 24 -16 53 -27 66 -10 13 -7 10 9 -5 20 -21 27 -37 26 -66z m-156 64
c-10 -13 -20 -22 -22 -20 -4 4 29 44 36 44 2 0 -4 -11 -14 -24z m270 -21 c-1
-16 -7 -33 -13 -39 -7 -7 -7 1 1 23 9 27 9 35 -2 43 -12 8 -11 9 1 5 9 -3 14
-15 13 -32z m-72 -26 c-12 -19 -21 -30 -21 -26 0 12 33 67 38 63 1 -2 -6 -19
-17 -37z m-29 -71 c-8 -8 -9 -4 -5 13 4 13 8 18 11 10 2 -7 -1 -18 -6 -23z
m-30 -15 c-6 -10 -25 -31 -44 -48 l-33 -30 31 35 c17 19 34 44 38 54 3 10 9
16 12 13 3 -3 1 -14 -4 -24z m148 -16 c0 -2 -10 -12 -22 -23 l-23 -19 19 23
c18 21 26 27 26 19z m-113 -29 c-3 -8 -6 -5 -6 6 -1 11 2 17 5 13 3 -3 4 -12
1 -19z m-190 -30 c-3 -8 -6 -5 -6 6 -1 11 2 17 5 13 3 -3 4 -12 1 -19z"/>
<path d="M3511 3905 c0 -5 6 -19 14 -29 8 -11 15 -15 15 -10 0 6 -7 19 -15 30
-8 10 -14 15 -14 9z"/>
<path d="M3560 3790 c0 -5 5 -10 10 -10 6 0 10 5 10 10 0 6 -4 10 -10 10 -5 0
-10 -4 -10 -10z"/>
<path d="M3518 3783 c7 -3 16 -2 19 1 4 3 -2 6 -13 5 -11 0 -14 -3 -6 -6z"/>
<path d="M3625 3780 c-3 -5 -1 -10 4 -10 6 0 11 5 11 10 0 6 -2 10 -4 10 -3 0
-8 -4 -11 -10z"/>
<path d="M3683 3735 c0 -27 2 -38 4 -22 2 15 2 37 0 50 -2 12 -4 0 -4 -28z"/>
<path d="M3590 3760 c0 -5 5 -10 11 -10 5 0 7 5 4 10 -3 6 -8 10 -11 10 -2 0
-4 -4 -4 -10z"/>
<path d="M3624 3717 c-12 -14 -8 -37 7 -37 5 0 9 8 9 18 1 15 2 14 12 -3 28
-52 39 -64 53 -59 23 9 18 23 -7 16 -17 -4 -20 -2 -15 12 4 9 3 15 -2 11 -5
-3 -12 8 -16 25 -7 31 -22 38 -41 17z"/>
<path d="M3568 3653 c6 -2 18 -2 25 0 6 3 1 5 -13 5 -14 0 -19 -2 -12 -5z"/>
<path d="M3675 3610 c-3 -5 -1 -10 4 -10 6 0 11 5 11 10 0 6 -2 10 -4 10 -3 0
-8 -4 -11 -10z"/>
<path d="M3988 3653 c-32 -8 -19 -23 20 -22 23 1 29 3 14 6 -12 2 -20 9 -17
14 4 5 5 8 3 8 -2 -1 -11 -3 -20 -6z"/>
<path d="M3930 3615 c0 -8 4 -15 9 -15 5 0 18 -3 28 -6 12 -3 10 -1 -5 8 -12
8 -19 17 -16 21 4 4 2 7 -4 7 -7 0 -12 -7 -12 -15z"/>
<path d="M3886 3594 c-8 -20 -3 -27 18 -22 12 2 13 6 2 21 -13 16 -14 16 -20
1z"/>
<path d="M3835 3550 c-3 -5 -1 -10 4 -10 6 0 11 5 11 10 0 6 -2 10 -4 10 -3 0
-8 -4 -11 -10z"/>
<path d="M3735 3515 c-3 -8 -7 -21 -9 -29 -3 -10 2 -14 14 -13 14 1 16 4 8 14
-5 7 -8 20 -4 28 3 8 3 15 0 15 -2 0 -7 -7 -9 -15z"/>
<path d="M3790 3520 c-11 -7 -6 -10 20 -10 26 0 31 3 20 10 -8 5 -17 10 -20
10 -3 0 -12 -5 -20 -10z"/>
<path d="M3858 3463 c6 -2 18 -2 25 0 6 3 1 5 -13 5 -14 0 -19 -2 -12 -5z"/>
<path d="M4587 3662 c-22 -24 -21 -55 1 -75 37 -34 92 -11 92 38 0 50 -60 73
-93 37z"/>
</g>
</svg>
