<svg width="16" height="16" viewBox="0 0 16 16" fill="none" xmlns="http://www.w3.org/2000/svg">
<g clip-path="url(#clip0_2066_11312)">
<path d="M12.496 15.36C11.6288 16.2016 10.672 16.0704 9.75998 15.6736C8.79038 15.2688 7.90398 15.2432 6.87998 15.6736C5.60478 16.224 4.92798 16.064 4.15998 15.36C-0.176023 10.896 0.463977 4.09598 5.39198 3.83998C6.58718 3.90398 7.42398 4.50078 8.12798 4.55038C9.17438 4.33758 10.176 3.72798 11.296 3.80798C12.6416 3.91678 13.648 4.44798 14.32 5.40318C11.552 7.06717 12.208 10.7152 14.7504 11.7392C14.2416 13.0752 13.5888 14.3952 12.4944 15.3712L12.496 15.36ZM8.03198 3.79198C7.90238 1.80799 9.51038 0.175991 11.36 0.0159912C11.6144 2.30399 9.27998 4.01598 8.03198 3.79198Z" fill="white"/>
</g>
<defs>
<clipPath id="clip0_2066_11312">
<rect width="16" height="16" fill="white"/>
</clipPath>
</defs>
</svg>
